<svg width="20" height="24" viewBox="0 0 20 24" fill="none" xmlns="http://www.w3.org/2000/svg">
<rect x="17.1855" y="20.0469" width="16.2402" height="1.75781" transform="rotate(-90 17.1855 20.0469)" fill="white" stroke="white"/>
<rect x="11.8955" y="22.8047" width="1.75781" height="1.75781" transform="rotate(-90 11.8955 22.8047)" fill="white" stroke="white"/>
<rect x="14.428" y="22.8047" width="1.75781" height="1.75781" transform="rotate(-90 14.428 22.8047)" fill="white" stroke="white"/>
<rect x="17.1855" y="22.8047" width="1.75781" height="1.75781" transform="rotate(-90 17.1855 22.8047)" fill="white" stroke="white"/>
<rect x="9.1377" y="21.5918" width="1.75781" height="1.75781" transform="rotate(-90 9.1377 21.5918)" fill="white" stroke="white"/>
<rect x="6.37988" y="19.2051" width="1.75781" height="1.75781" transform="rotate(-90 6.37988 19.2051)" fill="white" stroke="white"/>
<rect x="3.62207" y="18.4512" width="1.75781" height="1.75781" transform="rotate(-90 3.62207 18.4512)" fill="white" stroke="white"/>
<rect x="0.864258" y="18.4512" width="12.5059" height="1.75781" transform="rotate(-90 0.864258 18.4512)" fill="white" stroke="white"/>
<rect x="0.5" y="0.5" width="1.75781" height="1.75781" transform="matrix(-4.37114e-08 1 1 4.37114e-08 11.3955 0.697266)" fill="white" stroke="white"/>
<rect x="0.5" y="0.5" width="1.75781" height="1.75781" transform="matrix(-4.37114e-08 1 1 4.37114e-08 13.928 0.697266)" fill="white" stroke="white"/>
<rect x="0.5" y="0.5" width="1.75781" height="1.75781" transform="matrix(-4.37114e-08 1 1 4.37114e-08 16.6855 0.697266)" fill="white" stroke="white"/>
<rect x="0.5" y="0.5" width="1.75781" height="1.75781" transform="matrix(-4.37114e-08 1 1 4.37114e-08 8.6377 1.91016)" fill="white" stroke="white"/>
<rect x="0.5" y="0.5" width="1.75781" height="1.75781" transform="matrix(-4.37114e-08 1 1 4.37114e-08 5.87988 4.29688)" fill="white" stroke="white"/>
<rect x="0.5" y="0.5" width="1.75781" height="1.75781" transform="matrix(-4.37114e-08 1 1 4.37114e-08 3.12207 5.05078)" fill="white" stroke="white"/>
<rect x="0.5" y="0.5" width="12.5059" height="1.75781" transform="matrix(-4.37114e-08 1 1 4.37114e-08 0.364258 5.05078)" fill="white" stroke="white"/>
</svg>