<svg width="26" height="24" viewBox="0 0 26 24" fill="none" xmlns="http://www.w3.org/2000/svg">
<rect x="18.6941" y="19.752" width="16.2402" height="1.75781" transform="rotate(-90 18.6941 19.752)" fill="white" stroke="white"/>
<rect x="13.4038" y="22.5098" width="1.75781" height="1.75781" transform="rotate(-90 13.4038 22.5098)" fill="white" stroke="white"/>
<rect x="15.9363" y="22.5098" width="1.75781" height="1.75781" transform="rotate(-90 15.9363 22.5098)" fill="white" stroke="white"/>
<rect x="18.6941" y="22.5098" width="1.75781" height="1.75781" transform="rotate(-90 18.6941 22.5098)" fill="white" stroke="white"/>
<rect x="10.646" y="21.2969" width="1.75781" height="1.75781" transform="rotate(-90 10.646 21.2969)" fill="white" stroke="white"/>
<rect x="7.88818" y="18.9102" width="1.75781" height="1.75781" transform="rotate(-90 7.88818 18.9102)" fill="white" stroke="white"/>
<rect x="5.13037" y="18.1562" width="1.75781" height="1.75781" transform="rotate(-90 5.13037 18.1562)" fill="white" stroke="white"/>
<rect x="2.37256" y="18.1562" width="12.5059" height="1.75781" transform="rotate(-90 2.37256 18.1562)" fill="white" stroke="white"/>
<rect x="0.5" y="0.5" width="1.75781" height="1.75781" transform="matrix(-4.37114e-08 1 1 4.37114e-08 12.9038 0.402344)" fill="white" stroke="white"/>
<rect x="0.5" y="0.5" width="1.75781" height="1.75781" transform="matrix(-4.37114e-08 1 1 4.37114e-08 15.4363 0.402344)" fill="white" stroke="white"/>
<rect x="0.5" y="0.5" width="1.75781" height="1.75781" transform="matrix(-4.37114e-08 1 1 4.37114e-08 18.1941 0.402344)" fill="white" stroke="white"/>
<rect x="0.5" y="0.5" width="1.75781" height="1.75781" transform="matrix(-4.37114e-08 1 1 4.37114e-08 10.146 1.61523)" fill="white" stroke="white"/>
<rect x="0.5" y="0.5" width="1.75781" height="1.75781" transform="matrix(-4.37114e-08 1 1 4.37114e-08 7.38818 4.00195)" fill="white" stroke="white"/>
<rect x="0.5" y="0.5" width="1.75781" height="1.75781" transform="matrix(-4.37114e-08 1 1 4.37114e-08 4.63037 4.75586)" fill="white" stroke="white"/>
<rect x="0.5" y="0.5" width="12.5059" height="1.75781" transform="matrix(-4.37114e-08 1 1 4.37114e-08 1.87256 4.75586)" fill="white" stroke="white"/>
<rect x="23.3926" y="22.8913" width="29.9567" height="1.75781" transform="rotate(-137.709 23.3926 22.8913)" fill="white" stroke="white"/>
</svg>